<?xml version="1.0" standalone="no"?>
<!DOCTYPE svg PUBLIC "-//W3C//DTD SVG 20010904//EN"
 "http://www.w3.org/TR/2001/REC-SVG-20010904/DTD/svg10.dtd">
<svg version="1.0" xmlns="http://www.w3.org/2000/svg"
 width="512.000000pt" height="512.000000pt" viewBox="0 0 512.000000 512.000000"
 preserveAspectRatio="xMidYMid meet">
<metadata>
Created by potrace 1.14, written by Peter Selinger 2001-2017
</metadata>
<g transform="translate(0.000000,512.000000) scale(0.100000,-0.100000)"
fill="#000000" stroke="none">
<path d="M2403 5060 c-147 -35 -283 -125 -356 -235 -47 -72 -74 -82 -117 -45
-20 17 -37 20 -124 20 -83 0 -107 -4 -133 -20 -28 -17 -52 -19 -181 -21 -136
-1 -154 -3 -216 -28 -37 -15 -88 -45 -114 -67 -57 -49 -254 -340 -291 -428
-30 -74 -36 -176 -15 -267 20 -87 102 -334 128 -389 18 -37 22 -60 20 -125 -1
-44 -5 -163 -8 -265 -3 -102 -9 -293 -12 -425 -4 -132 -8 -276 -9 -320 -2 -44
-3 -135 -4 -201 l-1 -122 -73 -4 c-61 -3 -80 -8 -109 -30 -51 -39 -66 -80 -73
-193 -4 -55 -8 -116 -10 -135 -2 -19 -6 -78 -10 -130 -3 -52 -8 -120 -10 -150
-3 -30 -7 -89 -10 -130 -8 -113 -15 -209 -21 -265 -13 -144 -12 -251 4 -300
31 -94 152 -185 247 -185 19 0 22 -6 24 -49 2 -67 34 -169 76 -239 59 -101
159 -188 270 -235 100 -43 116 -43 1310 -41 627 1 1149 4 1160 7 11 3 34 9 50
13 216 55 402 283 409 503 1 36 1 36 56 43 105 13 186 67 230 154 32 64 33
127 5 464 -2 30 -7 93 -11 140 -3 47 -7 101 -9 120 -2 19 -6 82 -10 140 -3 58
-7 119 -10 135 -2 17 -6 80 -10 140 -8 115 -17 145 -57 183 -33 30 -78 42
-159 42 l-66 0 0 43 c0 46 -13 509 -18 682 -2 61 -7 232 -10 380 -4 149 -8
281 -9 295 -1 14 4 41 12 60 17 43 102 289 107 311 2 9 8 34 14 55 6 22 14 71
17 111 10 117 -15 180 -155 390 -129 194 -160 229 -238 267 -71 36 -134 46
-284 46 -108 0 -130 3 -145 18 -14 14 -39 18 -130 20 -103 3 -114 2 -133 -17
-12 -12 -33 -21 -48 -21 -23 0 -35 11 -67 61 -128 198 -417 301 -673 239z
m326 -262 l66 -33 -117 -3 c-65 -1 -171 -1 -235 0 l-116 3 50 27 c70 39 116
48 207 43 64 -4 92 -11 145 -37z"/>
</g>
</svg>
